<svg width="70" height="70" viewBox="0 0 70 70" fill="none" xmlns="http://www.w3.org/2000/svg">
<circle cx="35" cy="35" r="35" fill="white"/>
<path d="M20.1665 32.2168H15.2866L14.3589 35H11.3994L16.4277 21.4922H19.0068L24.063 35H21.1035L20.1665 32.2168ZM16.0381 29.9624H19.415L17.7173 24.9062L16.0381 29.9624ZM33.4517 29.48H28.1079V35H25.3247V21.4922H34.1196V23.7466H28.1079V27.2349H33.4517V29.48ZM40.3911 27.5781L43.2021 21.4922H46.2451L41.8105 30.1016V35H38.981V30.1016L34.5464 21.4922H37.5986L40.3911 27.5781ZM53.7134 32.2168H48.8335L47.9058 35H44.9463L49.9746 21.4922H52.5537L57.6099 35H54.6504L53.7134 32.2168ZM49.585 29.9624H52.9619L51.2642 24.9062L49.585 29.9624Z" fill="#FF0000"/>
</svg>
