<svg width="70" height="70" viewBox="0 0 70 70" fill="none" xmlns="http://www.w3.org/2000/svg">
<circle cx="35" cy="35" r="35" fill="white"/>
<path d="M20.3706 32.7642H27.1802V35H16.8916V33.3672L23.5713 23.7466H16.9009V21.4922H27.0317V23.0879L20.3706 32.7642ZM36.6987 32.2168H31.8188L30.8911 35H27.9316L32.96 21.4922H35.5391L40.5952 35H37.6357L36.6987 32.2168ZM32.5703 29.9624H35.9473L34.2495 24.9062L32.5703 29.9624ZM46.8574 30.0552H44.6401V35H41.8569V21.4922H46.876C48.4717 21.4922 49.7025 21.8478 50.5684 22.5591C51.4342 23.2703 51.8672 24.2754 51.8672 25.5742C51.8672 26.4958 51.6662 27.2658 51.2642 27.8843C50.8683 28.4966 50.2653 28.9852 49.4551 29.3501L52.3774 34.8701V35H49.3901L46.8574 30.0552ZM44.6401 27.8008H46.8853C47.5841 27.8008 48.1253 27.6245 48.5088 27.272C48.8923 26.9132 49.084 26.4215 49.084 25.7969C49.084 25.1598 48.9015 24.6589 48.5366 24.2939C48.1779 23.929 47.6243 23.7466 46.876 23.7466H44.6401V27.8008Z" fill="#0000FF"/>
</svg>
